<svg xmlns="http://www.w3.org/2000/svg" xmlns:xlink="http://www.w3.org/1999/xlink" version="1.1" x="0px" y="0px" viewBox="0 0 100 125" enable-background="new 0 0 100 100" xml:space="preserve"><path d="M80,15h-1l-4.3-8.6C74.3,5.5,73.4,5,72.5,5h-45c-0.9,0-1.8,0.5-2.2,1.4L21,15h-1c-1.4,0-2.5,1.1-2.5,2.5S18.6,20,20,20h1.5  L30,92.8c0.1,1.3,1.2,2.2,2.5,2.2h35c1.3,0,2.3-1,2.5-2.2L78.5,20H80c1.4,0,2.5-1.1,2.5-2.5S81.4,15,80,15z M65.3,90H34.7l-8.2-70  h46.9L65.3,90z M26.5,15l2.5-5H71l2.5,5H26.5z"/><text x="0" y="115" fill="#000000" font-size="5px" font-weight="bold" font-family="'Helvetica Neue', Helvetica, Arial-Unicode, Arial, Sans-serif">Created by Arthur Shlain</text><text x="0" y="120" fill="#000000" font-size="5px" font-weight="bold" font-family="'Helvetica Neue', Helvetica, Arial-Unicode, Arial, Sans-serif">from the Noun Project</text></svg>