<svg width="68" height="91" viewBox="0 0 68 91" fill="none" xmlns="http://www.w3.org/2000/svg">
<path d="M2.5 13.5L8.16111 1H15L8.16111 18.9497L18 89H4.5L2.5 13.5Z" fill="white" stroke="white"/>
<path d="M60.2889 18.86L53.1111 1H67.5V89H51L60.2889 18.86Z" fill="white" stroke="white"/>
<rect y="1" width="67" height="13" fill="white"/>
<path d="M65 11H64L59.7 2.4C59.3 1.5 58.4 1 57.5 1H12.5C11.6 1 10.7 1.5 10.3 2.4L6 11H5C3.6 11 2.5 12.1 2.5 13.5C2.5 14.9 3.6 16 5 16H6.5L15 88.8C15.1 90.1 16.2 91 17.5 91H52.5C53.8 91 54.8 90 55 88.8L63.5 16H65C66.4 16 67.5 14.9 67.5 13.5C67.5 12.1 66.4 11 65 11ZM50.3 86H19.7L11.5 16H58.4L50.3 86ZM11.5 11L14 6H56L58.5 11H11.5Z" fill="black"/>
</svg>
