<?xml version="1.0" encoding="utf-8"?>
<!-- Generator: Adobe Illustrator 27.1.1, SVG Export Plug-In . SVG Version: 6.00 Build 0)  -->
<svg version="1.1" id="Capa_1" xmlns="http://www.w3.org/2000/svg" xmlns:xlink="http://www.w3.org/1999/xlink" x="0px" y="0px"
	 viewBox="0 0 100 335" style="enable-background:new 0 0 100 335;" xml:space="preserve">
<style type="text/css">
	.st0{fill:#E20613;}
</style>
<path class="st0" d="M81.2,56.8H67.86l1.53-33.82c0.08-0.75,0.11-2.85,0.09-2.9C69.17,8.94,60.58,0,50,0S30.83,8.94,30.52,20.08
	c-0.01,0.05,0.02,2.15,0.09,2.9l1.53,33.82H18.8C8.42,56.8,0,65.23,0,75.63l0.06,100.25c0,0.26,0.02,0.51,0.05,0.75
	c0.49,6.97,6.12,12.97,13.8,16.21v127.11c-6.91,1.83-11.09,6.57-11.28,9.3c0,3.18,2.57,5.76,5.75,5.76h83.25
	c3.18,0,5.75-2.58,5.75-5.76c-0.18-2.73-4.37-7.46-11.28-9.3V192.84c7.68-3.24,13.31-9.24,13.8-16.21c0.03-0.25,0.05-0.5,0.05-0.75
	L100,75.63C100,65.23,91.58,56.8,81.2,56.8z"/>
</svg>
